<svg width="188" height="180" viewBox="0 0 188 180" fill="none" xmlns="http://www.w3.org/2000/svg">
<rect y="140" width="188" height="8" fill="#202531"/>
<path d="M45.6794 142.304C36.9434 142.304 28.7354 141.392 21.0554 139.568C13.3754 137.648 7.03938 135.152 2.04737 132.08L15.1514 107.024C25.9994 113.264 37.3274 116.384 49.1354 116.384C53.4554 116.384 56.7674 115.856 59.0714 114.8C61.3754 113.744 62.5274 112.304 62.5274 110.48C62.5274 108.752 61.3274 107.36 58.9274 106.304C56.6234 105.248 52.9274 104.096 47.8394 102.848C41.1194 101.12 35.5514 99.392 31.1354 97.664C26.7194 95.84 22.8314 93.104 19.4714 89.456C16.2074 85.712 14.5754 80.816 14.5754 74.768C14.5754 67.184 16.5914 60.56 20.6234 54.896C24.7514 49.136 30.6554 44.72 38.3354 41.648C46.0154 38.48 55.0874 36.896 65.5514 36.896C73.0394 36.896 79.9994 37.664 86.4314 39.2C92.9594 40.64 98.5754 42.752 103.279 45.536L91.0394 70.304C87.1034 67.808 82.7354 65.936 77.9354 64.688C73.2314 63.44 68.3834 62.816 63.3914 62.816C58.6874 62.816 55.0394 63.488 52.4474 64.832C49.8554 66.176 48.5594 67.76 48.5594 69.584C48.5594 71.408 49.7114 72.848 52.0154 73.904C54.4154 74.96 58.3034 76.112 63.6794 77.36C70.2074 78.896 75.6794 80.528 80.0954 82.256C84.6074 83.984 88.4954 86.672 91.7594 90.32C95.0234 93.968 96.6554 98.768 96.6554 104.72C96.6554 112.208 94.5914 118.784 90.4634 124.448C86.3354 130.112 80.4314 134.528 72.7514 137.696C65.0714 140.768 56.0474 142.304 45.6794 142.304Z" fill="#FBC02D"/>
<path d="M145.712 126.432H107.264L97.1844 144H61.3284L125.552 43.2H158.96L182.864 144H149.024L145.712 126.432ZM140.96 101.952L136.064 76.176L121.232 101.952H140.96Z" fill="white"/>
</svg>
