<svg width="26" height="16" viewBox="0 0 26 16" fill="none" xmlns="http://www.w3.org/2000/svg">
<g id="favorite Plus">
<path id="Vector" d="M4.66666 7.35715V9.9762C4.66666 10.4101 4.33087 10.7619 3.91666 10.7619H0.75C0.335781 10.7619 0 10.4101 0 9.9762V7.35715C0 6.92321 0.335781 6.57144 0.75 6.57144H3.91666C4.33087 6.57144 4.66666 6.92321 4.66666 7.35715ZM0 12.5952V15.2143C0 15.6482 0.335781 16 0.75 16H3.91666C4.33087 16 4.66666 15.6482 4.66666 15.2143V12.5952C4.66666 12.1613 4.33087 11.8095 3.91666 11.8095H0.75C0.335781 11.8095 0 12.1613 0 12.5952ZM3.91666 1.33334H0.75C0.335781 1.33334 0 1.68511 0 2.11906V4.73811C0 5.17205 0.335781 5.52382 0.75 5.52382H3.91666C4.33087 5.52382 4.66666 5.17205 4.66666 4.73811V2.11906C4.66666 1.68511 4.33087 1.33334 3.91666 1.33334ZM6.41666 16H15.25C15.6642 16 16 15.6482 16 15.2143V12.5952C16 12.1613 15.6642 11.8095 15.25 11.8095H6.41666C6.00244 11.8095 5.66666 12.1613 5.66666 12.5952V15.2143C5.66666 15.6482 6.00244 16 6.41666 16ZM5.66666 2.11906V4.73811C5.66666 5.17205 6.00244 5.52382 6.41666 5.52382H15.25C15.6642 5.52382 16 5.17205 16 4.73811V2.11906C16 1.68511 15.6642 1.33334 15.25 1.33334H6.41666C6.00244 1.33334 5.66666 1.68511 5.66666 2.11906ZM6.41666 10.7619H15.25C15.6642 10.7619 16 10.4101 16 9.9762V7.35715C16 6.92321 15.6642 6.57144 15.25 6.57144H6.41666C6.00244 6.57144 5.66666 6.92321 5.66666 7.35715V9.9762C5.66666 10.4101 6.00244 10.7619 6.41666 10.7619Z" fill="white"/>
<path id="Vector_2" d="M24.7619 2.61905H22.1905V0.47619C22.1905 0.213244 21.9346 0 21.6191 0H21.0476C20.7321 0 20.4762 0.213244 20.4762 0.47619V2.61905H17.9048C17.5892 2.61905 17.3333 2.83229 17.3333 3.09524V3.57143C17.3333 3.83437 17.5892 4.04762 17.9048 4.04762H20.4762V6.19048C20.4762 6.45342 20.7321 6.66667 21.0476 6.66667H21.6191C21.9346 6.66667 22.1905 6.45342 22.1905 6.19048V4.04762H24.7619C25.0775 4.04762 25.3333 3.83437 25.3333 3.57143V3.09524C25.3333 2.83229 25.0775 2.61905 24.7619 2.61905Z" fill="white"/>
</g>
</svg>
