<svg width="26" height="15" viewBox="0 0 26 15" fill="none" xmlns="http://www.w3.org/2000/svg">
<path d="M4.66666 6.35712V8.97617C4.66666 9.41011 4.33088 9.76188 3.91666 9.76188H0.75C0.335781 9.76188 0 9.41011 0 8.97617V6.35712C0 5.92318 0.335781 5.57141 0.75 5.57141H3.91666C4.33088 5.57141 4.66666 5.92318 4.66666 6.35712ZM0 11.5952V14.2143C0 14.6482 0.335781 15 0.75 15H3.91666C4.33088 15 4.66666 14.6482 4.66666 14.2143V11.5952C4.66666 11.1613 4.33088 10.8095 3.91666 10.8095H0.75C0.335781 10.8095 0 11.1613 0 11.5952ZM3.91666 0.333313H0.75C0.335781 0.333313 0 0.685084 0 1.11903V3.73808C0 4.17202 0.335781 4.52379 0.75 4.52379H3.91666C4.33088 4.52379 4.66666 4.17202 4.66666 3.73808V1.11903C4.66666 0.685084 4.33088 0.333313 3.91666 0.333313ZM6.41666 15H15.25C15.6642 15 16 14.6482 16 14.2143V11.5952C16 11.1613 15.6642 10.8095 15.25 10.8095H6.41666C6.00244 10.8095 5.66666 11.1613 5.66666 11.5952V14.2143C5.66666 14.6482 6.00244 15 6.41666 15ZM5.66666 1.11903V3.73808C5.66666 4.17202 6.00244 4.52379 6.41666 4.52379H15.25C15.6642 4.52379 16 4.17202 16 3.73808V1.11903C16 0.685084 15.6642 0.333313 15.25 0.333313H6.41666C6.00244 0.333313 5.66666 0.685084 5.66666 1.11903ZM6.41666 9.76188H15.25C15.6642 9.76188 16 9.41011 16 8.97617V6.35712C16 5.92318 15.6642 5.57141 15.25 5.57141H6.41666C6.00244 5.57141 5.66666 5.92318 5.66666 6.35712V8.97617C5.66666 9.41011 6.00244 9.76188 6.41666 9.76188Z" fill="white"/>
<path d="M22.1904 1.61902L24.7618 1.61905C25.0774 1.61905 25.3333 1.83229 25.3333 2.09524V2.57143C25.3333 2.83438 25.0774 3.04762 24.7618 3.04762H22.1904H20.4761H17.9047C17.5891 3.04762 17.3333 2.83438 17.3333 2.57143V2.09524C17.3333 1.83229 17.5891 1.61905 17.9047 1.61905L22.1904 1.61902Z" fill="white"/>
</svg>
