<svg width="1358" height="712" viewBox="0 0 1358 712" fill="none" xmlns="http://www.w3.org/2000/svg">
<path fill-rule="evenodd" clip-rule="evenodd" d="M1355.31 117.267C1358.9 120.8 1358.9 126.528 1355.31 130.061L1210.16 273.21C1206.58 276.743 1200.77 276.743 1197.19 273.21C1193.61 269.677 1193.61 263.95 1197.19 260.416L1342.34 117.267C1345.92 113.734 1351.73 113.734 1355.31 117.267Z" fill="#202531"/>
<path fill-rule="evenodd" clip-rule="evenodd" d="M246.251 389.816C249.834 393.349 249.834 399.077 246.251 402.61L15.6589 630.048C12.0774 633.581 6.26917 633.581 2.68679 630.048C-0.895595 626.516 -0.895595 620.787 2.68679 617.255L233.279 389.816C236.861 386.283 242.669 386.283 246.251 389.816Z" fill="#202531"/>
<path opacity="0.2" fill-rule="evenodd" clip-rule="evenodd" d="M1186.27 75.1925C1189.85 78.7258 1189.85 84.4532 1186.27 87.9865L948.699 322.306C945.117 325.838 939.309 325.838 935.726 322.306C932.145 318.773 932.145 313.045 935.726 309.513L1173.29 75.1925C1176.88 71.6601 1182.68 71.6601 1186.27 75.1925Z" fill="#202531"/>
<path opacity="0.2" fill-rule="evenodd" clip-rule="evenodd" d="M1142.67 324.621C1146.26 328.154 1146.26 333.882 1142.67 337.415L905.107 571.734C901.525 575.268 895.717 575.268 892.135 571.734C888.553 568.201 888.553 562.474 892.135 558.941L1129.7 324.621C1133.28 321.089 1139.09 321.089 1142.67 324.621Z" fill="#202531"/>
<path fill-rule="evenodd" clip-rule="evenodd" d="M1334.48 462.237C1338.06 465.77 1338.06 471.497 1334.48 475.031L1096.91 709.35C1093.33 712.883 1087.52 712.883 1083.94 709.35C1080.36 705.817 1080.36 700.089 1083.94 696.557L1321.5 462.237C1325.09 458.704 1330.9 458.704 1334.48 462.237Z" fill="#202531"/>
<path opacity="0.169" fill-rule="evenodd" clip-rule="evenodd" d="M1212.42 470.838C1216 474.371 1216 480.098 1212.42 483.632L1134.4 560.553C1130.82 564.086 1125.01 564.086 1121.43 560.553C1117.85 557.02 1117.85 551.292 1121.43 547.76L1199.45 470.838C1203.03 467.305 1208.84 467.305 1212.42 470.838Z" fill="#202531"/>
<path opacity="0.2" fill-rule="evenodd" clip-rule="evenodd" d="M314.427 129.379C318.01 132.912 318.01 138.64 314.427 142.173L76.8612 376.492C73.2788 380.024 67.4707 380.024 63.8883 376.492C60.3068 372.959 60.3068 367.231 63.8883 363.699L301.455 129.379C305.038 125.846 310.846 125.846 314.427 129.379Z" fill="#202531"/>
<path opacity="0.2" fill-rule="evenodd" clip-rule="evenodd" d="M337.967 476.859C341.55 480.392 341.55 486.12 337.967 489.652L158.814 666.345C155.231 669.878 149.423 669.878 145.841 666.345C142.259 662.812 142.259 657.084 145.841 653.552L324.995 476.859C328.577 473.326 334.385 473.326 337.967 476.859Z" fill="#202531"/>
<path opacity="0.2" fill-rule="evenodd" clip-rule="evenodd" d="M955.736 2.63835C959.332 6.15529 959.332 11.8577 955.736 15.3756L701.297 253.671C697.701 257.189 691.869 257.189 688.272 253.671C684.676 250.154 684.676 244.451 688.272 240.934L942.711 2.63835C946.308 -0.879451 952.139 -0.879451 955.736 2.63835Z" fill="#202531"/>
</svg>
