<svg width="502" height="237" viewBox="0 0 502 237" fill="none" xmlns="http://www.w3.org/2000/svg">
<path fill-rule="evenodd" clip-rule="evenodd" d="M406.619 1.36375C408.46 3.18252 408.46 6.13116 406.619 7.94949L332.045 81.6359C330.205 83.4547 327.221 83.4547 325.38 81.6359C323.54 79.8176 323.54 76.8694 325.38 75.0506L399.955 1.36375C401.795 -0.454583 404.779 -0.454583 406.619 1.36375Z" fill="#202531"/>
<path fill-rule="evenodd" clip-rule="evenodd" d="M282.619 6.36375C284.46 8.18252 284.46 11.1312 282.619 12.9495L208.045 86.6359C206.205 88.4547 203.221 88.4547 201.38 86.6359C199.54 84.8176 199.54 81.8694 201.38 80.0506L275.955 6.36375C277.795 4.54542 280.779 4.54542 282.619 6.36375Z" fill="#202531" fill-opacity="0.3"/>
<path fill-rule="evenodd" clip-rule="evenodd" d="M186.619 155.364C188.46 157.183 188.46 160.131 186.619 161.949L112.045 235.636C110.205 237.455 107.221 237.455 105.38 235.636C103.54 233.818 103.54 230.869 105.38 229.051L179.955 155.364C181.795 153.545 184.779 153.545 186.619 155.364Z" fill="#202531"/>
<path fill-rule="evenodd" clip-rule="evenodd" d="M82.6193 84.3637C84.4602 86.1825 84.4602 89.1312 82.6193 90.9495L8.04513 164.636C6.20462 166.455 3.22056 166.455 1.38005 164.636C-0.460016 162.818 -0.460016 159.869 1.38005 158.051L75.9546 84.3637C77.7951 82.5454 80.7792 82.5454 82.6193 84.3637Z" fill="#202531" fill-opacity="0.3"/>
<path fill-rule="evenodd" clip-rule="evenodd" d="M500.619 139.364C502.46 141.183 502.46 144.131 500.619 145.949L426.045 219.636C424.205 221.455 421.221 221.455 419.38 219.636C417.54 217.818 417.54 214.869 419.38 213.051L493.955 139.364C495.795 137.545 498.779 137.545 500.619 139.364Z" fill="#202531" fill-opacity="0.3"/>
</svg>
