<svg width="1697" height="833" viewBox="0 0 1697 833" fill="none" xmlns="http://www.w3.org/2000/svg">
<path fill-rule="evenodd" clip-rule="evenodd" d="M1693.64 137.165C1698.12 141.297 1698.12 147.998 1693.64 152.129L1512.26 319.567C1507.78 323.7 1500.52 323.7 1496.04 319.567C1491.57 315.436 1491.57 308.736 1496.04 304.604L1677.43 137.165C1681.91 133.033 1689.17 133.033 1693.64 137.165Z" fill="#FBC02D" fill-opacity="0.16"/>
<path fill-rule="evenodd" clip-rule="evenodd" d="M307.723 455.959C312.2 460.092 312.2 466.792 307.723 470.924L19.5678 736.954C15.0922 741.087 7.83415 741.087 3.35749 736.954C-1.11916 732.822 -1.11916 726.122 3.35749 721.99L291.513 455.959C295.989 451.827 303.247 451.827 307.723 455.959Z" fill="#FBC02D" fill-opacity="0.16"/>
<path opacity="0.2" fill-rule="evenodd" clip-rule="evenodd" d="M1482.4 87.9511C1486.87 92.084 1486.87 98.7832 1482.4 102.916L1185.52 376.994C1181.05 381.126 1173.79 381.126 1169.31 376.994C1164.84 372.862 1164.84 366.162 1169.31 362.03L1466.18 87.9511C1470.66 83.8193 1477.92 83.8193 1482.4 87.9511Z" fill="#FBC02D" fill-opacity="0.16"/>
<path opacity="0.2" fill-rule="evenodd" clip-rule="evenodd" d="M1427.92 379.702C1432.4 383.835 1432.4 390.534 1427.92 394.667L1131.05 668.745C1126.57 672.878 1119.32 672.878 1114.84 668.745C1110.36 664.613 1110.36 657.913 1114.84 653.781L1411.71 379.702C1416.19 375.571 1423.45 375.571 1427.92 379.702Z" fill="#FBC02D" fill-opacity="0.16"/>
<path fill-rule="evenodd" clip-rule="evenodd" d="M1667.61 540.668C1672.08 544.801 1672.08 551.5 1667.61 555.633L1370.74 829.712C1366.26 833.844 1359 833.844 1354.52 829.712C1350.05 825.579 1350.05 818.88 1354.52 814.748L1651.4 540.668C1655.87 536.537 1663.13 536.537 1667.61 540.668Z" fill="#FBC02D" fill-opacity="0.16"/>
<path opacity="0.169" fill-rule="evenodd" clip-rule="evenodd" d="M1515.08 550.729C1519.56 554.862 1519.56 561.561 1515.08 565.694L1417.58 655.667C1413.11 659.8 1405.85 659.8 1401.37 655.667C1396.9 651.534 1396.9 644.835 1401.37 640.703L1498.87 550.729C1503.35 546.597 1510.6 546.597 1515.08 550.729Z" fill="#FBC02D" fill-opacity="0.16"/>
<path opacity="0.2" fill-rule="evenodd" clip-rule="evenodd" d="M392.918 151.332C397.395 155.464 397.395 162.165 392.918 166.296L96.0481 440.374C91.5714 444.506 84.3133 444.506 79.8367 440.374C75.3611 436.243 75.3611 429.542 79.8367 425.411L376.708 151.332C381.185 147.2 388.443 147.2 392.918 151.332Z" fill="#FBC02D" fill-opacity="0.16"/>
<path opacity="0.2" fill-rule="evenodd" clip-rule="evenodd" d="M422.334 557.771C426.812 561.904 426.812 568.604 422.334 572.736L198.459 779.41C193.982 783.542 186.724 783.542 182.247 779.41C177.772 775.277 177.772 768.578 182.247 764.446L406.124 557.771C410.6 553.639 417.859 553.639 422.334 557.771Z" fill="#FBC02D" fill-opacity="0.16"/>
<path opacity="0.2" fill-rule="evenodd" clip-rule="evenodd" d="M1194.32 3.08602C1198.81 7.19972 1198.81 13.8698 1194.32 17.9845L876.362 296.713C871.868 300.828 864.581 300.828 860.086 296.713C855.592 292.6 855.592 285.929 860.086 281.815L1178.04 3.08602C1182.54 -1.02867 1189.82 -1.02867 1194.32 3.08602Z" fill="#FBC02D" fill-opacity="0.16"/>
</svg>
